<svg width="24" height="20" viewBox="0 0 24 20" fill="none" xmlns="http://www.w3.org/2000/svg">
<path d="M0.293232 10.7081L9.29323 19.7081C9.48087 19.8957 9.73537 20.0011 10.0007 20.0011C10.2661 20.0011 10.5206 19.8957 10.7082 19.7081C10.8959 19.5204 11.0013 19.2659 11.0013 19.0006C11.0013 18.7352 10.8959 18.4807 10.7082 18.2931L3.41448 11.0006H23.0007C23.2659 11.0006 23.5203 10.8952 23.7078 10.7077C23.8954 10.5201 24.0007 10.2658 24.0007 10.0006C24.0007 9.73534 23.8954 9.48099 23.7078 9.29345C23.5203 9.10591 23.2659 9.00056 23.0007 9.00056H3.41448L10.7082 1.70806C10.8959 1.52042 11.0013 1.26592 11.0013 1.00056C11.0013 0.735192 10.8959 0.480697 10.7082 0.293056C10.5206 0.105415 10.2661 0 10.0007 0C9.73537 0 9.48087 0.105415 9.29323 0.293056L0.293232 9.29306C0.200256 9.38593 0.126495 9.49622 0.0761719 9.61762C0.0258484 9.73901 -5.34058e-05 9.86914 -5.34058e-05 10.0006C-5.34058e-05 10.132 0.0258484 10.2621 0.0761719 10.3835C0.126495 10.5049 0.200256 10.6152 0.293232 10.7081Z" fill="white"/>
</svg>
