<svg width="47" height="28" viewBox="0 0 47 28" fill="none" xmlns="http://www.w3.org/2000/svg">
<path d="M26 5.00029C26 4.60246 26.158 4.22093 26.4393 3.93963C26.7206 3.65832 27.1022 3.50029 27.5 3.50029H45.5C45.8978 3.50029 46.2794 3.65832 46.5607 3.93963C46.842 4.22093 47 4.60246 47 5.00029C47 5.39811 46.842 5.77964 46.5607 6.06095C46.2794 6.34225 45.8978 6.50029 45.5 6.50029H27.5C27.1022 6.50029 26.7206 6.34225 26.4393 6.06095C26.158 5.77964 26 5.39811 26 5.00029ZM45.5 12.5003H27.5C27.1022 12.5003 26.7206 12.6583 26.4393 12.9396C26.158 13.2209 26 13.6025 26 14.0003C26 14.3981 26.158 14.7796 26.4393 15.0609C26.7206 15.3423 27.1022 15.5003 27.5 15.5003H45.5C45.8978 15.5003 46.2794 15.3423 46.5607 15.0609C46.842 14.7796 47 14.3981 47 14.0003C47 13.6025 46.842 13.2209 46.5607 12.9396C46.2794 12.6583 45.8978 12.5003 45.5 12.5003ZM45.5 21.5003H32C31.6022 21.5003 31.2206 21.6583 30.9393 21.9396C30.658 22.2209 30.5 22.6025 30.5 23.0003C30.5 23.3981 30.658 23.7796 30.9393 24.0609C31.2206 24.3423 31.6022 24.5003 32 24.5003H45.5C45.8978 24.5003 46.2794 24.3423 46.5607 24.0609C46.842 23.7796 47 23.3981 47 23.0003C47 22.6025 46.842 22.2209 46.5607 21.9396C46.2794 21.6583 45.8978 21.5003 45.5 21.5003ZM19.4919 16.6253C20.9806 15.4787 22.073 13.8948 22.616 12.0959C23.159 10.297 23.1254 8.3732 22.5197 6.59439C21.9141 4.81557 20.7669 3.27094 19.239 2.17711C17.711 1.08328 15.8791 0.495117 14 0.495117C12.1209 0.495117 10.2889 1.08328 8.76103 2.17711C7.23312 3.27094 6.0859 4.81557 5.48027 6.59439C4.87463 8.3732 4.84095 10.297 5.38396 12.0959C5.92697 13.8948 7.01943 15.4787 8.50812 16.6253C4.64187 18.2622 1.59499 21.5565 0.546868 25.6253C0.489621 25.847 0.483896 26.0789 0.530133 26.3032C0.57637 26.5274 0.673341 26.7381 0.813614 26.9191C0.953887 27.1001 1.13374 27.2466 1.33938 27.3474C1.54503 27.4481 1.771 27.5004 1.99999 27.5003H26C26.229 27.5004 26.455 27.4481 26.6606 27.3474C26.8662 27.2466 27.0461 27.1001 27.1864 26.9191C27.3266 26.7381 27.4236 26.5274 27.4699 26.3032C27.5161 26.0789 27.5104 25.847 27.4531 25.6253C26.405 21.5547 23.3581 18.2603 19.4919 16.6253Z" fill="#3139FB"/>
</svg>
