<svg width="46" height="36" viewBox="0 0 46 36" fill="none" xmlns="http://www.w3.org/2000/svg">
<path d="M40.8538 15.7031C40.9509 16.4648 40.9998 17.232 41 17.9999C41.0028 21.3633 40.0626 24.66 38.286 27.5158C36.5095 30.3716 33.9678 32.6721 30.9496 34.1561C27.9314 35.6401 24.5576 36.2482 21.2112 35.9113C17.8648 35.5743 14.6799 34.3059 12.0181 32.2499C16.7413 31.0949 22.2969 28.7006 27.4756 25.7249C32.9956 22.5543 37.655 19.0237 40.8538 15.7031ZM44.9581 5.37745C43.5238 2.90432 39.7381 2.34745 33.9894 3.7537C31.3279 1.69577 28.1427 0.425526 24.7954 0.0872558C21.4482 -0.251014 18.0732 0.356252 15.0538 1.84007C12.0344 3.32389 9.49167 5.62478 7.71447 8.48135C5.93728 11.3379 4.99685 14.6357 5.00002 17.9999C5.00026 18.7716 5.0491 19.5425 5.14627 20.3081C-0.0456028 25.6874 0.0293974 28.8749 1.04377 30.6224C2.00002 32.2799 3.99502 32.9999 6.62002 32.9999C8.44256 32.9622 10.2544 32.7105 12.0181 32.2499C11.051 31.5023 10.1615 30.6593 9.36315 29.7337C6.12127 30.2737 4.11315 29.9212 3.63877 29.1168C3.36502 28.6462 3.5169 27.7593 4.05502 26.6793C4.58711 25.6678 5.23386 24.721 5.98252 23.8574C5.9834 23.8519 5.9834 23.8462 5.98252 23.8406V23.8556C6.72664 26.0086 7.87183 28.0012 9.35752 29.7281C13.2838 29.0737 19.0119 27.1199 25.9756 23.1187C31.25 20.0981 36.875 15.8756 40.0231 12.1537C39.2818 9.99768 38.1364 8.00272 36.6481 6.27557L36.6238 6.24745C36.6238 6.25682 36.6406 6.26432 36.6481 6.27557C39.3125 5.83495 41.78 5.8687 42.3669 6.88307C42.5394 7.17744 42.5544 7.61807 42.395 8.19557C42.0781 9.37869 41.2344 10.7324 40.0269 12.1574C40.4239 13.3092 40.7023 14.4985 40.8575 15.7068C43.2013 13.2693 44.7613 10.9537 45.2919 8.97182C45.6557 7.59557 45.545 6.38807 44.9581 5.37745Z" fill="#3139FB"/>
</svg>
