<svg width="120" height="24" viewBox="0 0 120 24" fill="none" xmlns="http://www.w3.org/2000/svg">
<path d="M12.4992 24C6.01794 24 0.948425 18.738 0.948425 11.9679C0.948425 5.22995 6.01794 0 12.4992 0C18.5634 0 23.3121 4.04278 24.1142 9.94652H18.9484C18.403 6.64171 15.8361 4.36364 12.5634 4.36364C8.61688 4.36364 5.95377 7.47594 5.95377 11.9679C5.95377 16.492 8.61688 19.6364 12.5634 19.6364C15.8361 19.6364 18.3709 17.3262 18.9484 14.0214H24.1142C23.3121 19.9893 18.5634 24 12.4992 24Z" fill="white"/>
<path d="M34.7067 6.06417C26.0115 6.06417 26.0115 9.97861 26.0115 14.9519C26.0115 19.9572 29.7334 23.8396 34.7067 23.8396C39.68 23.8396 43.4019 19.9572 43.4019 14.9519C43.4019 9.97861 43.4019 6.06417 34.7067 6.06417ZM34.7067 10.0107C38.8136 10.0107 38.8136 11.7754 38.8136 14.9519C38.8136 18.1283 36.9206 19.861 34.7067 19.861C32.4928 19.861 30.5997 18.1283 30.5997 14.9519C30.5997 11.7754 30.5997 10.0107 34.7067 10.0107Z" fill="white"/>
<path d="M59.8628 23.5187L56.6221 12.385L53.4136 23.5187H48.9537L44.0767 6.38503H48.4082L51.328 17.2299L54.4724 6.38503H58.8681L61.9163 17.2299L64.804 6.38503H69.1997L64.2906 23.5187H59.8628Z" fill="white"/>
<path d="M78.5737 23.8396C73.6004 23.8396 69.8785 19.9251 69.8785 14.9519C69.8785 9.94652 69.8785 6.06417 78.5737 6.06417C87.2689 6.06417 87.2689 9.94652 87.2689 14.9519C87.2689 19.9251 83.5469 23.8396 78.5737 23.8396ZM78.5737 19.893C80.7876 19.893 82.6806 18.1283 82.6806 14.9519C82.6806 11.7754 82.6806 10.0428 78.5737 10.0428C74.4667 10.0428 74.4667 11.7754 74.4667 14.9519C74.4667 18.1283 76.3598 19.893 78.5737 19.893Z" fill="white"/>
<path d="M94.5748 15.2086V23.5187H90.115V6.38503H94.2219V9.68984C95.4732 7.50802 98.1363 6.19251 100.896 6.19251V10.8128C97.1096 10.5241 94.5748 11.4225 94.5748 15.2086Z" fill="white"/>
<path d="M107.672 23.5187H103.212V0.481283H107.672V13.6364L113.929 6.38503H119.063L111.972 14.5989L119.897 23.5187H114.218L107.672 15.5615V23.5187Z" fill="white"/>
</svg>
